<svg
   viewBox="0 0 640 480"
   version="1.1"
   id="Map"
   stroke-width="5px">

   <path
     id="E1"
     d="M 20,351 90,385"
   />
   <path
     id="E2"
     d="M 20,351 103,293"
   />
   <path
     id="E3"
     d="M 90,385 244,460"
   />
   <path
     id="E4"
     d="M 244,460 415,381"
   />
   <path
     id="E5"
     d="M 415,381 443,361"
   />
   <path
     id="E6"
     d="M 443,361 420,329"
   />
   <path
     id="E7"
     d="M 443,361 472,342"
   />
   <path
     id="E8"
     d="M 420,329 447,310"
   />
   <path
     id="E9"
     d="M 420,329 251,227"
   />
   <path
     id="E10"
     d="M 447,310 472,342"
   />
   <path
     id="E11"
     d="M 472,342 509,321"
   />
   <path
     id="E12"
     d="M 509,321 581,349"
   />
   <path
     id="E13"
     d="M 509,321 593,281"
   />
   <path
     id="E14"
     d="M 593,281 620,296"
   />
   <path
     id="E15"
     d="M 593,281 379,181"
   />
   <path
     id="E16"
     d="M 379,181 251,227"
   />
   <path
     id="E17"
     d="M 379,181 296,69"
   />
   <path
     id="E18"
     d="M 251,227 187,255"
   />
   <path
     id="E19"
     d="M 187,255 103,293"
   />
   <path
     id="E20"
     d="M 292,20 331,45"
   />
   <path
     id="E21"
     d="M 292,20 259,42"
   />
   <path
     id="E22"
     d="M 331,45 296,69"
   />
   <path
     id="E23"
     d="M 296,69 259,42"
   />



   <circle
     id="N1"
     cx="20"
     cy="351"
     r="8"
   />
   <circle
     id="N2"
     cx="90"
     cy="385"
     r="8"
   />
   <circle
     id="N3"
     cx="244"
     cy="460"
     r="8"
   />
   <circle
     id="N4"
     cx="415"
     cy="381"
     r="8"
   />
   <circle
     id="N5"
     cx="443"
     cy="361"
     r="8"
   />
   <circle
     id="N6"
     cx="420"
     cy="329"
     r="8"
   />
   <circle
     id="N7"
     cx="447"
     cy="310"
     r="8"
   />
   <circle
     id="N8"
     cx="472"
     cy="342"
     r="8"
   />
   <circle
     id="N9"
     cx="509"
     cy="321"
     r="8"
   />
   <circle
     id="N10"
     cx="581"
     cy="349"
     r="8"
   />
   <circle
     id="N11"
     cx="620"
     cy="296"
     r="8"
   />
   <circle
     id="N12"
     cx="593"
     cy="281"
     r="8"
   />
   <circle
     id="N13"
     cx="379"
     cy="181"
     r="8"
   />
   <circle
     id="N14"
     cx="251"
     cy="227"
     r="8"
   />
   <circle
     id="N15"
     cx="187"
     cy="255"
     r="8"
   />
   <circle
     id="N16"
     cx="103"
     cy="293"
     r="8"
   />
   <circle
     id="N17"
     cx="292"
     cy="20"
     r="8"
   />
   <circle
     id="N18"
     cx="331"
     cy="45"
     r="8"
   />
   <circle
     id="N19"
     cx="296"
     cy="69"
     r="8"
   />
   <circle
     id="N20"
     cx="259"
     cy="42"
     r="8"
   />


   <circle
     id="User"
     cx="0"
     cy="0"
     r="8"
   />
</svg>
